<?xml version="1.0" encoding="UTF-8"?>
<svg width="64" height="64" viewBox="0 0 64 64" fill="none" xmlns="http://www.w3.org/2000/svg">
  <rect width="64" height="64" rx="9" fill="#0d1b3d"/>
  <g fill="#e3b53a" transform="translate(32 32)">
    <rect x="-3.5" y="-26" width="7" height="9" rx="1.5" transform="rotate(0)"/>
    <rect x="-3.5" y="-26" width="7" height="9" rx="1.5" transform="rotate(30)"/>
    <rect x="-3.5" y="-26" width="7" height="9" rx="1.5" transform="rotate(60)"/>
    <rect x="-3.5" y="-26" width="7" height="9" rx="1.5" transform="rotate(90)"/>
    <rect x="-3.5" y="-26" width="7" height="9" rx="1.5" transform="rotate(120)"/>
    <rect x="-3.5" y="-26" width="7" height="9" rx="1.5" transform="rotate(150)"/>
    <rect x="-3.5" y="-26" width="7" height="9" rx="1.5" transform="rotate(180)"/>
    <rect x="-3.5" y="-26" width="7" height="9" rx="1.5" transform="rotate(210)"/>
    <rect x="-3.5" y="-26" width="7" height="9" rx="1.5" transform="rotate(240)"/>
    <rect x="-3.5" y="-26" width="7" height="9" rx="1.5" transform="rotate(270)"/>
    <rect x="-3.5" y="-26" width="7" height="9" rx="1.5" transform="rotate(300)"/>
    <rect x="-3.5" y="-26" width="7" height="9" rx="1.5" transform="rotate(330)"/>
  </g>
  <circle cx="32" cy="32" r="9" fill="#e3b53a"/>
  <circle cx="32" cy="32" r="3.5" fill="#0d1b3d"/>
</svg>
